<?xml version="1.0" standalone="no"?>
<!DOCTYPE svg PUBLIC "-//W3C//DTD SVG 20010904//EN"
 "http://www.w3.org/TR/2001/REC-SVG-20010904/DTD/svg10.dtd">
<svg version="1.0" xmlns="http://www.w3.org/2000/svg"
 width="16.000000pt" height="16.000000pt" viewBox="0 0 16.000000 16.000000"
 preserveAspectRatio="xMidYMid meet">
<metadata>
Created by potrace 1.11, written by Peter Selinger 2001-2013
</metadata>
<g transform="translate(0.000000,16.000000) scale(0.003200,-0.003200)"
fill="#000000" stroke="none">
<path d="M343 4985 c-166 -45 -285 -165 -328 -332 -23 -87 -23 -4219 0 -4306
44 -169 163 -288 332 -332 87 -23 4219 -23 4306 0 169 44 288 163 332 332 13
50 15 328 15 2153 0 2285 3 2145 -56 2262 -53 105 -165 190 -291 223 -84 22
-4229 21 -4310 0z m1998 -661 c17 -29 26 -34 58 -34 30 0 44 7 72 36 l34 36
200 -7 200 -6 62 -34 c66 -36 222 -104 286 -125 21 -6 85 -43 143 -81 84 -55
112 -69 143 -69 21 0 58 -7 82 -15 74 -27 99 -9 99 73 0 56 -24 99 -64 113
-38 14 -43 24 -23 50 26 35 81 59 134 59 52 0 103 16 103 32 0 4 30 8 67 8 65
0 66 0 48 -20 -10 -11 -15 -26 -11 -36 8 -21 56 -15 151 20 39 14 90 28 114
32 l43 7 -7 -32 c-7 -31 -6 -32 15 -21 18 9 25 8 41 -6 15 -14 19 -31 19 -91
0 -73 13 -116 46 -154 13 -14 12 -18 -1 -29 -20 -16 -20 -126 0 -270 8 -58 15
-177 15 -266 0 -151 -1 -163 -22 -194 -31 -44 -78 -67 -169 -81 -92 -15 -136
-7 -184 31 -50 40 -63 38 -67 -7 -4 -49 -23 -54 -208 -55 -144 -1 -200 8 -268
39 -28 13 -62 56 -62 79 0 7 70 0 108 -12 21 -6 23 -4 20 21 -3 25 -9 30 -53
40 -67 15 -84 28 -126 95 -33 51 -44 60 -95 80 -113 43 -529 97 -670 87 -74
-5 -84 -4 -100 15 -28 30 -103 21 -151 -19 -66 -53 -77 -89 -83 -258 -4 -120
-9 -157 -24 -185 l-19 -34 40 -36 c22 -19 67 -48 100 -65 42 -21 67 -42 85
-72 32 -50 63 -72 114 -80 22 -3 43 -12 47 -20 4 -7 19 -13 32 -13 14 0 26 -7
29 -18 3 -10 26 -37 50 -61 l43 -42 21 35 c28 47 42 45 42 -5 l0 -42 60 6 c43
5 102 0 206 -18 124 -22 163 -33 272 -81 162 -71 250 -104 284 -104 34 0 43
-13 156 -220 49 -91 115 -203 146 -250 56 -83 136 -235 136 -258 0 -7 -9 -12
-20 -12 -15 0 -20 -7 -20 -25 0 -29 2 -30 41 -10 28 15 30 15 39 -9 18 -49 60
-344 60 -427 0 -29 -34 -23 -75 12 -29 26 -38 29 -50 19 -8 -7 -15 -26 -15
-44 0 -33 -86 -221 -161 -353 -26 -46 -46 -83 -45 -83 1 0 43 32 92 70 84 66
114 82 114 60 0 -5 -41 -52 -90 -103 -64 -68 -90 -102 -90 -120 0 -48 -28 -66
-166 -107 -249 -73 -515 -102 -799 -85 l-130 7 35 30 35 30 -34 -6 c-18 -3
-52 -6 -75 -7 -26 0 -35 -3 -23 -7 15 -6 13 -10 -14 -26 -55 -32 -241 -15
-659 59 -111 20 -166 38 -275 93 -122 60 -258 112 -301 114 -19 1 -41 -5 -49
-13 -8 -8 -19 -50 -25 -94 -21 -159 -40 -195 -105 -195 -68 1 -156 66 -141
105 4 12 -3 15 -29 15 -33 0 -35 -2 -35 -33 l0 -33 -170 -12 c-108 -8 -184
-18 -210 -28 -40 -16 -42 -16 -66 7 -13 12 -31 45 -39 73 -19 64 -19 223 -1
318 8 40 19 109 25 153 5 44 19 123 30 175 25 115 27 192 6 210 -36 30 -7 87
68 138 64 44 118 61 225 72 62 7 120 20 159 37 56 23 72 25 140 20 100 -8 258
-48 341 -87 35 -16 70 -30 78 -30 22 0 120 -46 170 -81 26 -17 65 -36 87 -41
22 -5 54 -19 71 -31 24 -17 48 -23 109 -26 59 -2 80 -7 90 -20 22 -32 55 -41
149 -41 159 0 251 34 304 112 27 40 29 49 28 138 0 114 -22 204 -75 318 -63
137 -154 250 -254 316 l-40 26 59 0 c68 0 69 10 9 56 -40 31 -189 84 -336 120
-68 17 -96 40 -81 67 5 7 0 6 -10 -3 -11 -8 -14 -16 -7 -18 6 -2 9 -8 5 -13
-8 -14 -164 -12 -164 2 0 8 17 10 50 7 28 -3 50 -2 50 3 0 4 10 9 22 11 31 4
32 21 3 35 -22 10 -25 9 -25 -8 0 -10 -4 -19 -10 -19 -5 0 -10 5 -10 10 0 6
-7 10 -15 10 -8 0 -15 -7 -15 -16 0 -14 -8 -16 -57 -10 -32 4 -61 12 -65 19
-11 17 51 77 80 77 13 0 21 4 18 9 -3 5 1 12 10 15 12 4 14 13 10 32 -6 23 -5
24 13 14 16 -8 22 -7 31 9 27 52 2 54 -57 5 -26 -21 -42 -42 -39 -50 3 -8 -3
-18 -14 -24 -26 -14 -30 -13 -23 6 8 20 -4 14 -70 -36 -60 -45 -62 -67 -7 -62
41 4 50 -4 28 -26 -9 -9 -2 -12 34 -12 26 0 50 -5 54 -11 13 -21 -18 -34 -84
-34 -64 0 -67 1 -65 23 2 18 -3 24 -27 29 -23 4 -28 9 -20 18 8 9 -8 14 -67
19 -43 4 -82 11 -88 15 -5 4 -55 22 -110 40 -141 46 -184 70 -234 132 -33 41
-55 57 -88 67 -23 7 -43 17 -43 23 0 6 -35 47 -79 93 -76 79 -111 130 -111
159 0 8 -13 29 -30 47 l-30 32 0 179 c0 164 2 183 21 222 48 94 127 197 223
292 130 128 217 241 156 203 -11 -7 -23 -21 -26 -30 -3 -10 -11 -15 -20 -11
-8 3 -14 -1 -14 -10 0 -9 -8 -16 -17 -16 -10 1 -29 -3 -43 -7 -24 -7 -24 -7
-7 13 9 11 14 22 11 25 -7 8 27 42 50 51 10 4 20 16 23 26 3 12 11 17 22 14 9
-2 25 5 35 16 11 12 28 21 39 21 15 0 18 -5 15 -25 -5 -25 5 -34 17 -15 15 24
318 150 360 150 8 0 15 7 15 15 0 8 6 13 13 10 6 -2 39 7 72 19 58 22 71 23
362 24 l303 0 21 -34z m-970 6 c30 -16 25 -62 -8 -77 -15 -7 -33 -13 -40 -13
-18 0 -16 27 3 38 11 6 13 11 5 16 -6 4 -11 16 -11 27 0 21 21 25 51 9z m-291
-29 c0 -5 -9 -19 -20 -32 l-19 -24 -1 27 c0 23 10 35 33 37 4 1 7 -3 7 -8z
m80 -62 c0 -11 -4 -18 -9 -15 -5 3 -14 -1 -21 -9 -12 -15 -40 -21 -40 -9 0 11
44 52 58 53 6 1 12 -8 12 -20z m-380 -2339 c0 -5 -5 -12 -11 -15 -7 -5 -4 -14
7 -26 16 -17 16 -19 1 -19 -22 0 -60 38 -54 53 5 14 57 19 57 7z m3327 -826
c-9 -9 -28 6 -21 18 4 6 10 6 17 -1 6 -6 8 -13 4 -17z"/>
<path d="M1962 4318 c-24 -10 -49 -17 -55 -15 -16 5 -44 -32 -49 -63 -2 -19
-10 -26 -30 -28 -16 -2 -30 -11 -33 -22 -5 -16 -38 -34 -57 -31 -5 1 -8 -4 -8
-10 0 -6 -7 -8 -16 -5 -12 4 -15 2 -11 -9 4 -8 2 -17 -3 -20 -13 -8 -13 -25 0
-25 6 0 10 7 10 15 0 18 17 20 22 3 3 -9 12 -7 33 6 20 13 30 15 33 8 2 -7 8
-12 14 -12 7 0 7 5 -1 13 -8 10 -4 20 18 41 15 15 32 26 37 25 20 -3 47 1 41
8 -10 10 13 33 33 33 10 0 20 7 24 15 3 8 14 15 25 15 10 0 21 7 25 15 9 25
26 17 26 -12 0 -25 1 -25 18 -10 10 10 26 17 35 17 9 0 21 9 27 20 6 11 17 20
25 20 8 0 15 7 15 15 0 24 -143 19 -198 -7z"/>
<path d="M1642 4298 c-15 -15 -16 -38 -2 -38 12 0 23 25 18 40 -2 7 -7 7 -16
-2z"/>
<path d="M1580 4266 c0 -21 -5 -26 -25 -26 -15 0 -25 -6 -25 -14 0 -21 -41
-28 -55 -9 -14 19 -35 9 -35 -18 0 -11 7 -19 18 -20 13 0 13 -2 -5 -9 -12 -5
-24 -17 -27 -28 -4 -13 -16 -19 -33 -19 -15 0 -29 -6 -31 -12 -2 -7 -15 -25
-28 -40 -29 -35 -29 -37 -2 -37 12 0 33 11 46 23 14 13 27 21 29 19 2 -2 24
16 48 41 23 25 47 43 52 40 17 -11 105 81 101 105 -5 32 -28 35 -28 4z"/>
<path d="M1720 4260 c0 -5 5 -10 10 -10 6 0 10 5 10 10 0 6 -4 10 -10 10 -5 0
-10 -4 -10 -10z"/>
<path d="M4265 4240 c-8 -24 1 -40 21 -40 9 0 14 11 14 30 0 35 -25 42 -35 10z"/>
<path d="M1942 4190 c0 -14 2 -19 5 -12 2 6 2 18 0 25 -3 6 -5 1 -5 -13z"/>
<path d="M1634 4157 c-5 -12 -20 -21 -33 -22 -13 -1 -32 -11 -41 -23 -9 -11
-25 -20 -36 -19 -14 2 -19 -4 -19 -22 0 -13 6 -26 13 -29 8 -2 10 2 5 14 -5
14 -2 16 19 11 18 -5 30 -1 43 13 13 15 14 20 5 20 -11 0 -11 3 -2 12 8 8 15
8 25 -1 12 -9 16 -7 20 9 3 11 17 24 31 30 32 12 34 25 3 26 -15 1 -27 -6 -33
-19z"/>
<path d="M1254 4145 c-4 -9 -2 -21 4 -27 15 -15 44 -1 40 19 -4 23 -36 29 -44
8z"/>
<path d="M1650 4074 c0 -8 -13 -20 -30 -25 -31 -11 -38 -23 -20 -34 9 -5 80
57 80 70 0 3 -7 5 -15 5 -8 0 -15 -7 -15 -16z"/>
<path d="M1730 4055 c0 -8 7 -15 15 -15 8 0 15 7 15 15 0 8 -7 15 -15 15 -8 0
-15 -7 -15 -15z"/>
<path d="M1460 4041 c0 -5 -6 -16 -14 -24 -9 -9 -11 -19 -5 -28 7 -11 11 -10
23 6 18 23 21 55 6 55 -5 0 -10 -4 -10 -9z"/>
<path d="M1280 4006 c0 -7 8 -16 19 -19 14 -3 17 0 14 14 -6 22 -33 26 -33 5z"/>
<path d="M1376 3969 c-8 -12 -19 -18 -25 -14 -7 3 -11 -2 -11 -14 0 -26 23
-27 50 -4 20 18 28 53 11 53 -6 0 -17 -9 -25 -21z"/>
<path d="M1137 3910 c7 -25 23 -36 23 -16 0 9 5 16 10 16 6 0 10 5 10 10 0 6
-11 10 -24 10 -19 0 -23 -4 -19 -20z"/>
<path d="M1920 3898 c0 -7 -13 -22 -29 -33 -16 -10 -27 -23 -24 -28 3 -4 -2
-16 -11 -26 -16 -17 -15 -18 8 -18 18 0 28 8 36 28 7 15 18 30 26 33 16 6 19
56 4 56 -5 0 -10 -6 -10 -12z"/>
<path d="M1808 3809 c-10 -5 -15 -16 -12 -24 4 -8 1 -15 -6 -15 -6 0 -9 -4 -5
-9 3 -5 0 -13 -6 -17 -8 -4 -9 -3 -5 4 13 21 -12 13 -34 -10 l-21 -23 25 -3
c15 -2 33 4 42 12 8 9 22 16 30 16 8 0 14 10 14 24 0 13 3 31 6 40 7 18 -3 20
-28 5z"/>
<path d="M1687 3693 c-10 -15 24 -26 37 -12 8 9 7 10 -6 6 -9 -3 -18 -1 -21 6
-2 8 -5 8 -10 0z"/>
<path d="M1605 3625 c-3 -8 -7 -22 -10 -30 -2 -8 -14 -15 -25 -15 -11 0 -29
-9 -40 -20 -11 -11 -16 -20 -11 -20 5 0 18 -3 28 -7 16 -6 16 -5 4 10 -12 15
-11 17 10 17 35 0 46 11 51 48 5 33 1 43 -7 17z"/>
<path d="M1800 3630 c0 -5 5 -10 11 -10 5 0 7 5 4 10 -3 6 -8 10 -11 10 -2 0
-4 -4 -4 -10z"/>
<path d="M1896 3631 c-3 -5 1 -14 9 -21 8 -7 15 -18 15 -25 0 -7 11 -12 25
-12 24 0 25 1 10 17 -8 9 -13 25 -9 34 5 12 0 16 -19 16 -14 0 -28 -4 -31 -9z"/>
<path d="M920 3615 c0 -8 5 -15 10 -15 6 0 10 7 10 15 0 8 -4 15 -10 15 -5 0
-10 -7 -10 -15z"/>
<path d="M1730 3586 c0 -29 19 -44 31 -25 16 25 10 49 -11 49 -15 0 -20 -7
-20 -24z"/>
<path d="M1130 3568 c0 -24 -4 -28 -27 -28 -26 0 -26 0 -8 -20 15 -16 16 -23
6 -33 -9 -9 -14 -9 -21 3 -8 12 -10 10 -10 -7 0 -16 -6 -23 -20 -23 -13 0 -20
-7 -20 -20 0 -11 -5 -20 -11 -20 -5 0 -7 -5 -3 -11 13 -21 84 12 84 39 0 6 7
12 15 16 9 3 15 18 15 37 0 28 2 31 25 25 22 -6 25 -3 25 18 0 13 2 31 6 39 4
11 -3 14 -25 13 -27 -1 -31 -5 -31 -28z"/>
<path d="M1881 3586 c-8 -9 -22 -14 -31 -11 -9 3 -23 -1 -29 -9 -11 -13 -8
-15 16 -13 15 1 31 7 36 12 4 6 11 3 18 -7 5 -10 20 -18 32 -18 l22 0 -21 18
c-12 9 -23 23 -26 31 -3 10 -7 10 -17 -3z"/>
<path d="M2062 3519 c-9 -14 -20 -19 -33 -16 -10 3 -21 2 -24 -3 -3 -4 5 -10
16 -13 12 -3 18 -10 15 -16 -4 -6 -14 -8 -24 -5 -15 5 -15 5 1 -6 20 -13 37
-6 37 16 0 8 7 14 15 14 16 0 38 34 28 44 -11 10 -18 7 -31 -15z"/>
<path d="M1735 3510 c3 -5 10 -10 16 -10 5 0 9 5 9 10 0 6 -7 10 -16 10 -8 0
-12 -4 -9 -10z"/>
<path d="M1151 3494 c0 -11 3 -14 6 -6 3 7 2 16 -1 19 -3 4 -6 -2 -5 -13z"/>
<path d="M1445 3490 c-3 -5 -15 -10 -26 -10 -10 0 -19 -4 -19 -10 0 -5 15 -10
34 -10 29 0 33 3 29 20 -6 23 -9 24 -18 10z"/>
<path d="M1621 3474 c0 -11 3 -14 6 -6 3 7 2 16 -1 19 -3 4 -6 -2 -5 -13z"/>
<path d="M1541 3433 c1 -27 4 -38 6 -25 2 12 9 22 14 22 5 0 9 7 9 15 0 9 6
12 15 9 9 -4 15 0 15 10 0 11 -9 16 -30 16 -29 0 -30 -1 -29 -47z"/>
<path d="M1680 3461 c0 -5 7 -12 16 -15 8 -3 12 -11 9 -16 -7 -12 12 -40 26
-40 5 0 9 5 9 10 0 6 -8 10 -17 10 -21 0 -6 16 22 23 18 4 18 5 -3 6 -12 0
-25 8 -28 16 -7 16 -34 21 -34 6z"/>
<path d="M1968 3452 c-19 -4 -25 -32 -8 -32 6 0 10 -13 10 -30 0 -21 4 -28 14
-24 20 8 29 36 15 45 -6 4 -9 11 -6 16 9 14 -6 29 -25 25z"/>
<path d="M1493 3433 c-13 -2 -23 -9 -23 -14 0 -5 -7 -9 -15 -9 -8 0 -15 -7
-15 -15 0 -19 16 -19 24 0 3 8 12 12 20 9 8 -3 19 3 26 15 6 12 9 20 8 20 -2
-1 -13 -4 -25 -6z"/>
<path d="M1640 3409 c0 -5 -9 -9 -20 -9 -13 0 -20 -7 -20 -20 0 -11 -5 -20
-12 -20 -6 0 -3 -9 7 -20 22 -24 35 -26 35 -5 0 8 9 15 19 15 33 0 43 55 11
63 -11 3 -20 1 -20 -4z m20 -24 c0 -8 -4 -15 -10 -15 -5 0 -10 7 -10 15 0 8 5
15 10 15 6 0 10 -7 10 -15z"/>
<path d="M2107 3392 c3 -12 -3 -22 -19 -29 -18 -9 -19 -12 -5 -12 9 -1 17 -5
17 -10 0 -5 2 -16 5 -23 4 -9 -2 -14 -15 -14 -11 0 -20 6 -20 13 0 7 -11 13
-25 13 -37 0 -30 -12 22 -38 l46 -23 22 27 c12 15 20 36 17 46 -5 22 -22 24
-22 3 0 -8 -4 -15 -10 -15 -5 0 -10 9 -10 19 0 11 5 23 10 26 15 9 12 35 -4
35 -9 0 -12 -7 -9 -18z"/>
<path d="M4235 3377 c-14 -19 -22 -77 -10 -77 15 0 55 25 60 38 16 42 -25 74
-50 39z"/>
<path d="M1913 3373 c-15 -5 -17 -23 -4 -23 5 0 11 7 15 15 3 8 4 15 3 14 -1
0 -8 -3 -14 -6z"/>
<path d="M1380 3342 c0 -20 -36 -46 -44 -31 -2 5 -3 4 -2 -3 4 -18 45 -18 67
0 14 12 15 19 6 33 -15 24 -27 24 -27 1z"/>
<path d="M4136 3325 c-8 -22 4 -46 23 -43 9 2 17 15 19 31 3 21 -1 27 -16 27
-11 0 -22 -7 -26 -15z"/>
<path d="M1966 3311 c-4 -5 -3 -17 1 -28 6 -16 5 -17 -11 -3 -18 14 -18 13
-11 -20 4 -19 13 -38 19 -42 6 -4 -8 -8 -31 -8 -32 0 -43 4 -43 15 0 8 -5 15
-11 15 -7 0 -9 -11 -5 -30 3 -19 2 -29 -4 -25 -6 3 -10 -1 -10 -9 0 -18 38
-32 52 -18 6 6 24 8 39 5 22 -4 35 1 60 26 25 25 29 34 19 46 -6 8 -9 23 -5
34 8 27 -45 66 -59 42z"/>
<path d="M3780 3305 c0 -51 40 -69 80 -37 27 22 14 37 -42 47 -32 6 -38 4 -38
-10z"/>
<path d="M3637 3295 c-9 -22 3 -46 22 -43 10 2 16 13 16 28 0 28 -29 40 -38
15z"/>
<path d="M1290 3280 c0 -5 7 -10 16 -10 8 0 12 5 9 10 -3 6 -10 10 -16 10 -5
0 -9 -4 -9 -10z"/>
<path d="M1900 3255 c0 -19 5 -35 10 -35 6 0 10 16 10 35 0 19 -4 35 -10 35
-5 0 -10 -16 -10 -35z"/>
<path d="M1243 3251 c-10 -11 -26 -31 -36 -45 -11 -16 -27 -26 -42 -26 -20 0
-25 -5 -25 -25 0 -14 5 -25 11 -25 22 0 49 21 49 39 0 27 33 54 48 39 9 -9 15
-9 24 0 9 9 8 12 -7 12 -19 1 -19 1 -2 14 19 14 23 36 7 36 -5 0 -18 -9 -27
-19z"/>
<path d="M1438 3249 c-10 -5 -15 -16 -12 -24 4 -8 1 -15 -5 -15 -6 0 -11 5
-11 10 0 6 -11 3 -25 -6 -13 -8 -29 -13 -34 -10 -12 8 -31 -25 -31 -53 0 -19
-4 -21 -40 -15 -32 5 -40 4 -40 -9 0 -17 26 -47 40 -47 5 0 6 8 3 18 -6 15 -5
15 10 3 27 -22 21 -41 -13 -41 -23 0 -35 7 -50 33 l-20 32 0 -37 c0 -38 -8
-46 -26 -28 -7 7 -17 5 -30 -5 -16 -13 -17 -14 -1 -9 10 4 26 -1 37 -11 13
-12 20 -14 20 -6 0 7 8 11 18 9 9 -1 23 1 30 6 7 4 19 2 28 -5 19 -15 24 -10
31 37 6 42 19 64 37 64 6 0 4 -5 -4 -10 -12 -8 -12 -10 5 -9 11 0 29 4 40 9
18 8 18 9 2 9 -14 1 -17 6 -11 24 9 30 14 34 23 19 9 -16 61 7 61 27 0 11 -3
11 -15 1 -18 -15 -19 -7 -4 22 13 24 9 29 -13 17z"/>
<path d="M724 3236 c-9 -22 2 -46 21 -46 12 0 15 8 13 27 -3 30 -25 42 -34 19z"/>
<path d="M1822 3210 c-26 -11 -42 -42 -24 -48 25 -8 11 -24 -16 -19 -21 4 -29
2 -29 -8 0 -8 4 -12 9 -9 4 3 8 -2 8 -10 0 -12 -10 -16 -41 -16 -27 0 -38 -4
-33 -11 3 -6 0 -15 -7 -20 -7 -4 -10 -11 -5 -16 4 -4 12 0 17 10 6 9 15 17 21
17 9 0 9 -3 0 -12 -7 -7 -12 -18 -12 -25 0 -22 20 -14 30 13 6 14 15 22 21 18
6 -3 28 11 50 32 38 37 39 37 59 19 11 -10 20 -15 20 -11 0 4 -11 18 -25 31
-20 18 -24 29 -19 49 3 14 5 26 3 25 -2 0 -14 -4 -27 -9z"/>
<path d="M2098 3196 c-22 -16 -24 -66 -3 -66 8 0 15 9 15 19 0 11 5 23 10 26
12 7 14 35 3 35 -5 0 -16 -7 -25 -14z"/>
<path d="M1550 3120 c0 -11 5 -20 10 -20 6 0 10 9 10 20 0 11 -4 20 -10 20 -5
0 -10 -9 -10 -20z"/>
<path d="M1705 3130 c3 -5 10 -10 16 -10 5 0 9 5 9 10 0 6 -7 10 -16 10 -8 0
-12 -4 -9 -10z"/>
<path d="M1517 3123 c-4 -3 -7 -11 -7 -17 0 -6 5 -5 12 2 6 6 9 14 7 17 -3 3
-9 2 -12 -2z"/>
<path d="M2140 3090 c0 -5 4 -10 9 -10 6 0 13 5 16 10 3 6 -1 10 -9 10 -9 0
-16 -4 -16 -10z"/>
<path d="M852 3063 c4 -36 33 -39 33 -3 0 16 -6 26 -18 28 -15 3 -18 -2 -15
-25z"/>
<path d="M1600 3063 c-32 -21 -41 -35 -35 -50 2 -7 0 -15 -5 -18 -16 -10 -11
-19 17 -32 37 -18 65 6 56 49 -5 25 -1 34 18 49 l24 19 -25 0 c-14 0 -37 -8
-50 -17z"/>
<path d="M2102 3037 l3 -36 23 22 c16 15 19 23 10 26 -7 2 -19 8 -26 14 -9 7
-12 1 -10 -26z"/>
<path d="M1400 3040 c-8 -15 -17 -19 -32 -14 -17 5 -19 3 -13 -15 4 -12 2 -21
-4 -21 -6 0 -11 7 -11 15 0 8 -7 15 -15 15 -8 0 -15 -7 -15 -16 0 -11 -5 -14
-16 -10 -14 5 -15 4 -4 -9 18 -22 -5 -47 -36 -39 -30 8 -54 -11 -54 -42 0 -40
29 -29 127 48 36 29 67 46 76 42 10 -4 15 0 14 13 -1 11 4 18 13 17 9 -1 16 7
16 17 0 26 -32 24 -46 -1z"/>
<path d="M1980 3015 c7 -9 15 -13 17 -11 7 7 -7 26 -19 26 -6 0 -6 -6 2 -15z"/>
<path d="M1453 2944 c-3 -8 -14 -14 -24 -14 -26 0 -25 -36 1 -43 11 -3 20 -11
20 -17 0 -8 -9 -10 -24 -6 -14 3 -27 3 -30 -2 -2 -4 12 -8 32 -7 36 0 37 1 40
42 2 30 8 43 20 45 13 3 12 5 -6 10 -15 4 -25 2 -29 -8z"/>
<path d="M1840 2910 c0 -19 3 -21 12 -12 9 9 9 15 0 24 -9 9 -12 7 -12 -12z"/>
<path d="M1757 2863 c-26 -7 -18 -47 11 -51 19 -3 22 1 22 27 0 17 -3 30 -7
30 -5 -1 -16 -3 -26 -6z"/>
<path d="M2132 2794 c-7 -8 -22 -14 -32 -14 -11 0 -20 -7 -20 -15 0 -8 5 -15
10 -15 6 0 3 -14 -6 -31 l-16 -31 36 27 c34 26 53 61 44 84 -1 5 -9 3 -16 -5z"/>
<path d="M1654 2785 c-4 -10 -13 -13 -26 -9 -24 7 -59 -22 -51 -43 5 -13 1
-15 -20 -9 -22 5 -27 3 -27 -12 0 -9 -7 -28 -16 -40 -12 -18 -13 -22 -1 -22
17 0 80 21 87 29 14 16 50 30 55 21 10 -17 25 -11 25 9 0 11 5 23 11 27 8 5 8
9 -1 14 -7 4 0 10 19 13 40 8 40 24 1 22 -16 -1 -30 2 -30 7 0 14 -20 9 -26
-7z"/>
<path d="M1224 2745 c-9 -21 3 -45 21 -45 10 0 15 10 15 30 0 32 -26 43 -36
15z"/>
<path d="M2050 2730 c0 -11 2 -20 5 -20 2 0 9 9 15 20 9 16 8 20 -5 20 -8 0
-15 -9 -15 -20z"/>
<path d="M2915 2680 c-3 -5 1 -10 9 -10 9 0 16 5 16 10 0 6 -4 10 -9 10 -6 0
-13 -4 -16 -10z"/>
<path d="M1972 2672 c-23 -4 -23 -4 -5 -24 13 -15 15 -22 6 -25 -12 -4 -19
-33 -8 -33 3 0 23 17 45 39 l40 39 -27 3 c-16 2 -38 3 -51 1z"/>
<path d="M3234 2602 c7 -12 108 -40 176 -47 l55 -7 -30 21 c-16 11 -50 23 -75
26 -25 3 -65 8 -89 11 -26 3 -41 2 -37 -4z"/>
<path d="M2030 2575 c7 -9 15 -13 17 -11 7 7 -7 26 -19 26 -6 0 -6 -6 2 -15z"/>
<path d="M1980 2565 c-9 -11 -9 -15 -1 -15 7 0 9 -5 5 -12 -4 -7 -3 -10 1 -5
9 8 18 47 11 47 -2 0 -9 -7 -16 -15z"/>
<path d="M3500 2515 c0 -8 7 -15 15 -15 8 0 15 7 15 15 0 8 -7 15 -15 15 -8 0
-15 -7 -15 -15z"/>
<path d="M3620 2405 c-17 -10 -20 -14 -9 -15 9 0 22 7 29 15 15 18 12 18 -20
0z"/>
<path d="M3681 2223 c-1 -63 3 -103 9 -103 12 0 12 156 0 185 -6 13 -9 -16 -9
-82z"/>
<path d="M3887 1903 c-13 -13 -7 -43 13 -63 46 -46 80 -6 34 41 -29 30 -36 34
-47 22z"/>
<path d="M4083 1723 c-15 -5 -17 -49 -4 -57 16 -10 41 5 41 24 0 21 -20 39
-37 33z"/>
<path d="M4014 1676 c-8 -22 3 -49 19 -43 6 2 12 14 12 27 0 27 -22 39 -31 16z"/>
<path d="M4114 1466 c-8 -21 3 -49 16 -41 5 3 10 15 10 25 0 25 -18 36 -26 16z"/>
<path d="M4047 1414 c-13 -13 -7 -52 8 -58 17 -6 29 13 23 40 -3 19 -20 28
-31 18z"/>
<path d="M1470 1005 c0 -10 10 -15 30 -15 20 0 30 5 30 15 0 10 -10 15 -30 15
-20 0 -30 -5 -30 -15z"/>
<path d="M1630 930 c0 -5 28 -33 63 -61 126 -106 185 -130 220 -91 28 31 21
42 -28 42 -38 0 -48 4 -67 30 -12 17 -27 30 -32 30 -6 0 -36 13 -66 30 -56 30
-90 38 -90 20z"/>
<path d="M2007 866 c-8 -21 19 -54 33 -40 7 7 10 20 8 30 -4 23 -33 30 -41 10z"/>
<path d="M2142 765 c-16 -35 -10 -43 55 -71 72 -32 94 -32 64 0 -12 13 -37 32
-56 42 -18 10 -38 26 -42 37 -8 18 -10 17 -21 -8z"/>
<path d="M2351 666 c2 -2 14 -9 27 -15 18 -10 22 -9 22 4 0 10 -9 15 -27 15
-14 0 -24 -2 -22 -4z"/>
<path d="M2541 656 c-9 -10 -8 -15 2 -19 13 -5 47 14 47 27 0 12 -38 6 -49 -8z"/>
<path d="M2954 656 c-8 -22 3 -49 19 -43 6 2 12 14 12 27 0 27 -22 39 -31 16z"/>
</g>
</svg>
