<?xml version="1.0" encoding="UTF-8" standalone="no"?>
<svg
   xmlns:dc="http://purl.org/dc/elements/1.1/"
   xmlns:cc="http://creativecommons.org/ns#"
   xmlns:rdf="http://www.w3.org/1999/02/22-rdf-syntax-ns#"
   xmlns:svg="http://www.w3.org/2000/svg"
   xmlns="http://www.w3.org/2000/svg"
   id="svg4548"
   version="1.1"
   viewBox="0 0 54.91161 52.916454"
   height="52.916454mm"
   width="54.91161mm">
  <defs
     id="defs4542" />
  <metadata
     id="metadata4545">
    <rdf:RDF>
      <cc:Work
         rdf:about="">
        <dc:format>image/svg+xml</dc:format>
        <dc:type
           rdf:resource="http://purl.org/dc/dcmitype/StillImage" />
        <dc:title></dc:title>
      </cc:Work>
    </rdf:RDF>
  </metadata>
  <g
     transform="translate(-56.383404,-133.68538)"
     id="layer1">
    <path
       id="rect5106"
       transform="scale(0.26458333)"
       d="m 306.97852,505.26758 c -12.50613,0 -24.83665,0.45386 -24.83985,1.35937 -0.002,0.6875 1.81612,5.78519 4.04102,11.32813 l 4.04492,10.07812 -31.43164,80.27539 c -17.28718,44.1521 -32.11428,80.96003 -32.94922,81.79493 -0.8349,0.83493 -3.92147,2.32928 -6.85937,3.32031 -5.04397,1.70147 -5.35925,2.00692 -5.65821,5.48242 -0.59142,6.8747 -2.2306,6.52935 29.54102,6.23633 l 28.77539,-0.26563 0.31445,-4.40039 c 0.34318,-4.79448 -0.65293,-6.05507 -4.81445,-6.08984 -4.43135,-0.0378 -10.19169,-2.11161 -12.62696,-4.54688 -4.18669,-4.18669 -3.8555,-5.57406 9.42969,-39.46289 l 1.76367,-4.5 35.68555,-0.26367 35.68555,-0.26172 1.42773,2.26172 c 3.06251,4.85492 10.88289,27.51377 11.38281,32.97852 0.50107,5.47733 0.38114,5.85715 -2.92187,9.16015 -2.65234,2.65236 -4.5846,3.59618 -8.38672,4.09961 -11.05494,1.46378 -10.57622,1.1657 -10.24023,6.36524 l 0.30078,4.66015 h 46 46 v -4.89453 -4.89648 l -5,-1.43946 c -2.74999,-0.79177 -6.24206,-2.61456 -7.75977,-4.05078 -2.12009,-2.00628 -11.01601,-23.36096 -38.39843,-92.16601 -19.60194,-49.25462 -36.07806,-90.11524 -36.61329,-90.80274 -0.70495,-0.90551 -13.38645,-1.35937 -25.89257,-1.35937 z m -6.29688,50.10937 c 1.26697,0 28.63216,67.91337 27.86524,69.1543 -0.64498,1.0436 -54.1119,1.13727 -54.73243,0.0957 -0.24567,-0.41249 3.23316,-10.20003 7.73243,-21.75 4.49922,-11.55001 10.40283,-26.9625 13.11914,-34.25 2.71634,-7.28753 5.42416,-13.25 6.01562,-13.25 z"
       style="opacity:1;fill:#000000;fill-opacity:1;stroke:none;stroke-width:26.7043457;stroke-miterlimit:4;stroke-dasharray:none;stroke-opacity:1" />
  </g>
</svg>
