<?xml version="1.0" encoding="UTF-8" standalone="no"?>
<!-- Created with Inkscape (http://www.inkscape.org/) -->

<svg
   xmlns:dc="http://purl.org/dc/elements/1.1/"
   xmlns:cc="http://creativecommons.org/ns#"
   xmlns:rdf="http://www.w3.org/1999/02/22-rdf-syntax-ns#"
   xmlns:svg="http://www.w3.org/2000/svg"
   xmlns="http://www.w3.org/2000/svg"
   xmlns:sodipodi="http://sodipodi.sourceforge.net/DTD/sodipodi-0.dtd"
   xmlns:inkscape="http://www.inkscape.org/namespaces/inkscape"
   width="60.963535mm"
   height="66.057838mm"
   viewBox="0 0 60.963535 66.057838"
   version="1.1"
   id="svg8"
   inkscape:version="0.92.1 r"
   sodipodi:docname="rg.svg">
  <defs
     id="defs2" />
  <sodipodi:namedview
     id="base"
     pagecolor="#ffffff"
     bordercolor="#666666"
     borderopacity="1.0"
     inkscape:pageopacity="0.0"
     inkscape:pageshadow="2"
     inkscape:zoom="1.4"
     inkscape:cx="192.33754"
     inkscape:cy="142.24035"
     inkscape:document-units="mm"
     inkscape:current-layer="layer1"
     showgrid="false"
     inkscape:window-width="1769"
     inkscape:window-height="1242"
     inkscape:window-x="930"
     inkscape:window-y="629"
     inkscape:window-maximized="0"
     fit-margin-top="0"
     fit-margin-left="0"
     fit-margin-right="0"
     fit-margin-bottom="0" />
  <metadata
     id="metadata5">
    <rdf:RDF>
      <cc:Work
         rdf:about="">
        <dc:format>image/svg+xml</dc:format>
        <dc:type
           rdf:resource="http://purl.org/dc/dcmitype/StillImage" />
        <dc:title></dc:title>
      </cc:Work>
    </rdf:RDF>
  </metadata>
  <g
     inkscape:label="Ebene 1"
     inkscape:groupmode="layer"
     id="layer1"
     transform="translate(-76.212086,-125.04531)">
    <path
       style="fill:#000000;stroke-width:0.25400001"
       d="m 113.23516,190.78753 c -3.02529,-0.76135 -5.32745,-2.3416 -7.70658,-5.28996 -2.11073,-2.61574 -6.898364,-9.76715 -9.211124,-13.75889 l -1.76598,-3.048 -2.75619,-0.15233 c -1.77135,-0.0979 -2.87823,-0.057 -3.09772,0.11454 -0.27648,0.21604 -0.32373,1.74475 -0.24809,8.02633 0.0875,7.27045 0.12758,7.83413 0.63514,8.94424 0.29793,0.65163 0.80962,1.3307 1.13708,1.50904 0.32747,0.17835 1.68124,0.50245 3.00839,0.72023 l 2.413,0.39595 0.0781,1.0795 c 0.043,0.59373 -0.0142,1.08337 -0.127,1.08809 -0.1128,0.005 -4.49135,0.0158 -9.7301,0.0246 l -9.525,0.016 v -1.10412 -1.10413 l 1.524,-0.32753 c 2.26474,-0.48673 3.22633,-1.04512 3.81,-2.21247 0.4918,-0.98359 0.51023,-1.59849 0.57803,-19.28004 0.0606,-15.80879 0.0176,-18.44429 -0.31976,-19.60484 -0.47809,-1.64458 -1.20924,-2.26407 -3.13128,-2.65308 -2.41932,-0.48965 -2.58799,-0.60459 -2.58799,-1.76357 0,-0.5618 0.11858,-1.02145 0.26352,-1.02145 0.14494,0 5.60276,-0.0286 12.1285,-0.0635 10.84716,-0.0581 12.006614,-0.0236 13.515984,0.40158 2.80572,0.79037 4.82414,1.90259 6.49222,3.57745 2.35567,2.36523 3.40518,4.99323 3.41076,8.54061 0.006,3.78727 -1.31421,6.87632 -4.18798,9.79933 -1.43103,1.45556 -2.23486,2.02558 -4.11912,2.921 -1.28761,0.6119 -2.34488,1.23121 -2.3495,1.37626 -0.0294,0.92582 5.85782,9.52525 9.53952,13.93425 3.42327,4.09953 5.57496,5.7407 8.3591,6.37583 1.20422,0.27471 1.27395,0.33596 1.34634,1.18269 0.0512,0.59863 -0.0643,1.00969 -0.35027,1.24704 -0.61323,0.50894 -5.15713,0.57963 -7.02601,0.10931 z M 97.666206,164.36432 c 3.133484,-0.81616 5.406844,-2.65143 6.699144,-5.40815 0.61424,-1.31029 0.67574,-1.71939 0.67574,-4.49483 0,-2.93543 -0.0321,-3.1185 -0.83071,-4.74077 -1.37036,-2.78358 -3.53878,-4.23497 -7.165694,-4.79622 -1.98524,-0.3072 -7.77445,-0.23399 -8.32337,0.10525 -0.44945,0.27778 -0.46141,18.9703 -0.0124,19.41928 0.46666,0.46666 7.08079,0.40422 8.95732,-0.0846 z m 26.424884,-12.41194 c -1.58332,-0.50074 -2.45227,-1.03749 -3.60661,-2.22782 -2.11473,-2.18069 -2.87039,-5.07808 -2.87039,-11.00588 0,-6.04086 0.78506,-8.94989 3.00328,-11.1287 1.4215,-1.39625 2.95969,-2.11951 5.15214,-2.42256 4.06152,-0.56141 7.7126,0.83837 9.59351,3.67804 1.09546,1.65384 1.03579,1.95762 -0.5108,2.60036 -1.65561,0.68804 -2.16225,0.6821 -2.52767,-0.0296 -1.47724,-2.8773 -5.39763,-3.79632 -7.93844,-1.86092 -1.76575,1.345 -2.24235,2.5184 -2.47121,6.08409 -0.26021,4.05414 0.05,8.89431 0.64522,10.06774 1.00595,1.98308 2.48646,2.85747 4.82159,2.84761 1.80274,-0.008 2.78889,-0.34141 3.78056,-1.27968 1.00775,-0.95348 1.37703,-1.75983 1.68295,-3.67481 0.38865,-2.43286 0.3558,-2.46853 -2.2732,-2.46853 -2.65485,0 -2.85836,-0.15363 -2.74841,-2.07488 l 0.0775,-1.35412 4.5022,-0.0693 4.5022,-0.0693 0.17016,0.678 c 0.29284,1.16675 -0.10179,6.22124 -0.61428,7.86788 -0.92168,2.96134 -2.91505,4.98425 -5.73739,5.8224 -1.53125,0.45473 -5.2232,0.46592 -6.63289,0.0201 z"
       id="path4496"
       inkscape:connector-curvature="0" />
  </g>
</svg>
