<?xml version="1.0" standalone="no"?>
<!DOCTYPE svg PUBLIC "-//W3C//DTD SVG 20010904//EN"
 "http://www.w3.org/TR/2001/REC-SVG-20010904/DTD/svg10.dtd">
<svg version="1.0" xmlns="http://www.w3.org/2000/svg"
 width="16.000000pt" height="16.000000pt" viewBox="0 0 16.000000 16.000000"
 preserveAspectRatio="xMidYMid meet">
<metadata>
Created by potrace 1.11, written by Peter Selinger 2001-2013
</metadata>
<g transform="translate(0.000000,16.000000) scale(0.003200,-0.003200)"
fill="#000000" stroke="none">
<path d="M4326 4985 c-20 -7 -45 -23 -55 -36 -19 -24 -19 -24 1 -46 11 -12 17
-26 14 -31 -8 -14 -83 -31 -156 -35 -77 -5 -131 -34 -155 -84 -20 -41 -20 -40
18 -47 40 -8 74 -36 87 -72 14 -37 15 -137 0 -163 -13 -26 -67 -28 -130 -6
-23 8 -65 15 -93 15 -46 0 -60 7 -178 85 -78 51 -157 96 -201 111 -123 45
-238 94 -348 150 l-106 54 -102 0 c-77 0 -111 4 -135 17 -24 12 -60 16 -143
17 l-112 1 -61 -58 c-57 -54 -64 -58 -103 -55 -39 3 -46 8 -96 73 -75 98 -95
104 -151 47 -38 -38 -39 -38 -61 -20 -29 24 -81 23 -113 -2 -35 -28 -51 -26
-165 20 l-100 40 -185 -65 c-103 -36 -192 -64 -198 -63 -7 2 -15 -8 -19 -22
-4 -16 -8 -21 -13 -13 -6 10 -15 9 -40 -1 -18 -8 -97 -38 -177 -66 -147 -54
-209 -83 -268 -127 l-34 -25 17 32 c9 17 14 38 11 46 -7 18 -42 13 -59 -8 -6
-9 -24 -23 -39 -32 -25 -16 -27 -16 -37 1 -9 16 -10 15 -11 -8 0 -30 -19 -49
-49 -52 -13 -1 -21 -8 -21 -19 0 -11 -7 -18 -20 -18 -24 0 -26 -15 -4 -24 14
-5 12 -9 -7 -25 -29 -23 -23 -32 11 -18 14 5 33 9 43 8 11 -2 21 5 24 18 6 24
14 26 31 9 9 -9 12 -8 12 8 0 20 53 68 63 57 12 -11 -100 -141 -237 -277 -139
-138 -204 -221 -284 -366 l-30 -55 0 -231 0 -232 44 -48 c25 -26 44 -55 42
-63 -4 -32 43 -100 136 -197 53 -54 98 -107 102 -117 3 -11 27 -23 65 -34 46
-13 64 -23 79 -47 47 -74 142 -152 197 -162 19 -4 92 -27 162 -51 69 -25 155
-51 191 -58 36 -7 66 -13 68 -14 1 -1 20 -1 43 -1 37 0 39 -1 24 -16 -20 -21
-16 -24 29 -26 36 -1 36 -2 30 -35 -5 -24 -3 -33 7 -34 66 -6 87 -5 127 4 94
19 93 53 -1 56 -67 2 -81 7 -54 22 31 18 18 29 -34 27 -35 0 -47 -4 -37 -10
11 -8 10 -9 -1 -6 -8 2 -16 14 -17 25 -3 16 12 34 59 71 75 59 101 71 92 42
-8 -25 -4 -25 36 -1 25 15 28 20 13 23 -14 2 -8 13 32 51 27 27 61 55 77 63
26 14 27 14 27 -11 0 -15 -5 -35 -10 -46 -10 -18 -13 -18 -40 -4 -27 14 -44 5
-20 -10 18 -11 11 -43 -12 -48 -18 -5 -19 -8 -8 -21 11 -14 8 -16 -26 -16 -32
0 -46 -7 -78 -40 -36 -36 -38 -42 -25 -55 9 -9 43 -18 83 -22 63 -6 67 -5 73
16 6 24 43 29 43 5 0 -8 7 -22 15 -31 22 -21 15 -24 -26 -13 -51 15 -89 13
-89 -5 0 -11 13 -15 53 -16 28 -1 72 -2 97 -3 39 -2 49 2 78 32 18 19 36 32
39 28 4 -4 -3 -16 -17 -26 -36 -28 -21 -37 126 -76 160 -43 134 -35 234 -68
46 -15 97 -34 113 -42 34 -18 107 -83 107 -96 0 -5 -29 -8 -65 -7 -36 1 -68 0
-71 -3 -2 -3 15 -17 39 -31 125 -74 274 -261 347 -436 53 -129 77 -234 87
-371 7 -109 -16 -169 -89 -235 -75 -68 -180 -95 -367 -97 -99 -1 -145 12 -177
50 -19 23 -29 25 -115 29 -84 3 -99 6 -143 34 -27 16 -68 34 -92 38 -23 5 -78
30 -121 58 -87 55 -190 103 -221 103 -11 0 -47 13 -80 30 -86 43 -191 75 -324
100 -174 33 -231 32 -333 -10 -46 -19 -102 -34 -135 -36 -169 -11 -256 -34
-346 -92 -66 -43 -124 -106 -124 -135 0 -10 11 -34 24 -53 17 -25 23 -46 21
-77 -4 -59 -14 -133 -26 -187 -6 -25 -12 -52 -14 -60 -26 -122 -35 -177 -39
-239 -3 -41 -10 -88 -15 -105 -23 -80 -34 -179 -28 -278 7 -116 9 -129 32
-183 19 -47 52 -85 74 -85 9 0 34 6 56 14 58 20 233 37 388 39 107 1 102 -3
99 75 -1 20 4 22 47 22 46 0 47 -1 43 -28 -5 -40 53 -94 125 -117 51 -16 61
-17 97 -4 60 21 76 59 96 231 13 108 23 136 55 148 36 14 138 -10 242 -56 17
-8 34 -14 38 -14 3 0 68 -30 143 -66 168 -81 223 -101 332 -120 47 -8 97 -17
110 -19 38 -8 380 -64 425 -70 22 -3 105 -8 185 -11 144 -6 145 -6 193 21 44
25 64 44 34 32 -8 -3 -19 -2 -25 2 -7 4 25 8 70 9 44 2 86 5 92 8 6 3 1 -3
-12 -13 -13 -10 -35 -28 -50 -40 l-27 -22 50 -2 c28 -1 73 -3 100 -5 79 -6
399 -5 478 1 148 11 195 17 297 36 202 39 454 111 484 139 10 10 21 37 23 61
5 38 15 53 107 143 87 86 144 162 131 174 -6 6 -89 -50 -174 -119 -47 -38 -87
-67 -89 -65 -2 2 16 35 39 72 57 93 204 390 218 439 6 22 11 50 11 63 0 23 21
52 37 52 4 0 22 -14 38 -31 29 -31 63 -49 90 -49 10 0 12 16 10 63 -6 121 -16
215 -34 332 -17 107 -32 168 -47 192 l-14 23 -33 -20 c-43 -27 -47 -26 -47 15
0 31 3 35 25 35 14 0 25 4 25 9 0 37 -143 296 -216 391 -23 30 -59 87 -79 125
-142 264 -230 414 -243 416 -4 0 -16 2 -27 4 -11 2 -37 6 -59 10 -40 6 -143
46 -276 108 -144 66 -269 107 -332 107 -20 0 -48 4 -62 10 -14 5 -45 12 -70
15 -24 2 -55 8 -68 13 -13 4 -36 7 -53 6 -16 -1 -58 -4 -92 -7 l-63 -5 0 54
c0 31 -4 54 -10 54 -15 0 -58 -48 -66 -72 -3 -10 -10 -18 -14 -16 -22 7 -113
105 -122 129 -7 22 -14 26 -40 24 -21 -2 -32 2 -35 14 -3 10 -17 17 -41 19
-20 1 -52 7 -69 13 -34 11 -109 88 -124 127 -5 12 -20 27 -35 32 -44 17 -167
91 -196 118 -33 31 -34 41 -9 108 17 43 20 75 19 200 -1 119 2 160 17 204 37
114 106 176 205 187 39 4 54 1 78 -17 29 -21 42 -23 224 -25 106 -2 211 -6
233 -9 56 -9 88 -13 185 -26 219 -29 252 -35 354 -68 75 -24 116 -58 155 -126
38 -66 66 -85 156 -106 62 -15 70 -20 72 -42 2 -34 -12 -55 -29 -41 -14 11
-43 19 -102 28 -34 6 -36 5 -36 -21 0 -53 77 -102 205 -130 17 -4 104 -8 194
-9 161 -1 266 8 286 27 11 10 12 14 14 58 1 41 26 39 84 -5 64 -49 112 -57
237 -41 30 4 58 7 62 7 20 0 91 30 118 51 68 50 73 71 76 282 1 118 -3 227
-11 286 -27 188 -29 216 -30 313 0 83 3 100 17 108 16 9 15 14 -13 57 -40 62
-51 109 -48 200 2 71 1 77 -23 95 -23 17 -28 18 -55 3 l-30 -15 13 37 c24 68
21 73 -33 52 -27 -10 -93 -33 -148 -50 -55 -18 -112 -37 -126 -42 -31 -13 -78
-3 -85 16 -3 8 16 43 41 77 l47 64 -39 17 c-43 20 -95 20 -147 3z m-2416 -123
c0 -4 -5 -13 -12 -20 -7 -7 -8 -12 -2 -12 5 0 16 8 23 19 11 14 28 19 78 20
62 1 64 0 61 -21 -2 -15 -9 -22 -21 -21 -11 0 -23 -9 -30 -24 -7 -16 -17 -23
-28 -20 -10 3 -31 -8 -49 -24 -17 -16 -32 -29 -34 -29 -1 0 -2 15 -1 33 2 47
-4 51 -30 22 -13 -14 -30 -25 -38 -25 -8 0 -22 -9 -31 -19 -10 -11 -24 -17
-31 -15 -19 8 -48 -25 -36 -40 8 -10 2 -12 -27 -11 -20 1 -39 -1 -42 -5 -11
-14 -126 -97 -142 -103 -10 -3 -20 -2 -23 3 -10 17 -25 11 -25 -10 0 -11 -4
-20 -9 -20 -18 0 -21 17 -7 36 11 15 12 22 3 33 -10 11 -8 13 11 7 17 -6 22
-3 22 9 0 12 6 15 19 10 11 -3 22 -1 26 5 4 6 13 9 21 6 9 -3 14 1 14 13 0 22
26 45 52 47 10 1 23 2 28 3 6 0 10 13 10 29 0 15 9 35 20 45 11 9 20 22 20 29
0 8 12 12 32 12 18 -1 43 4 54 11 40 25 124 43 124 27z m-500 -62 c0 -26 -38
-47 -46 -25 -7 18 12 45 32 45 8 0 14 -9 14 -20z m-75 -19 c8 -26 -13 -67 -41
-80 -13 -5 -26 -22 -30 -36 -4 -17 -11 -24 -21 -21 -7 3 -16 -1 -20 -9 -4 -12
-8 -13 -19 -4 -8 7 -16 10 -17 8 -12 -20 -107 -116 -111 -112 -8 9 -66 -38
-66 -53 0 -8 -4 -14 -10 -14 -5 0 -10 5 -10 11 0 6 -9 9 -20 6 -28 -7 -25 14
5 43 14 13 25 29 25 36 0 18 62 47 71 33 7 -12 13 -6 35 36 5 11 18 19 28 19
9 -1 15 3 13 10 -2 6 -11 10 -19 8 -10 -1 -14 5 -12 20 1 13 3 26 3 31 1 4 12
7 26 7 22 0 30 -9 26 -32 -2 -12 17 -10 24 2 3 6 14 10 25 10 13 0 17 5 13 19
-4 16 1 20 29 23 28 2 34 7 36 31 4 31 28 36 37 8z m175 -16 c0 -8 -7 -15 -15
-15 -8 0 -15 7 -15 15 0 8 7 15 15 15 8 0 15 -7 15 -15z m3340 -14 c0 -5 3
-16 6 -24 7 -20 -25 -52 -39 -38 -13 13 -18 41 -12 59 5 14 45 17 45 3z
m-3064 -85 c-4 -31 -21 -21 -21 13 0 22 3 27 12 19 7 -5 11 -20 9 -32z m-347
-22 c-5 -6 -23 -17 -39 -24 -17 -7 -30 -20 -30 -30 0 -26 -12 -32 -30 -15 -15
14 -18 14 -30 0 -10 -12 -9 -15 5 -15 15 0 13 -5 -10 -29 -25 -24 -33 -27 -52
-18 -26 12 -45 1 -23 -13 8 -5 11 -12 7 -16 -9 -9 -46 24 -43 39 3 24 18 38
36 32 11 -3 29 5 50 25 19 18 39 29 48 25 16 -6 52 21 52 40 0 6 15 11 35 11
25 0 32 -3 24 -12z m-514 -39 c0 -25 -4 -30 -25 -30 -16 0 -26 6 -28 18 -6 30
6 49 30 45 18 -2 23 -9 23 -33z m685 -26 c11 -19 10 -20 -9 -9 -22 11 -29 30
-11 30 5 0 14 -9 20 -21z m-195 -58 c-3 -12 -19 -28 -34 -36 -16 -8 -31 -21
-34 -29 -7 -17 -37 -11 -37 8 0 12 45 36 68 36 7 0 10 5 6 12 -4 6 1 17 11 24
23 17 29 12 20 -15z m118 -16 c4 -8 2 -17 -3 -20 -13 -8 -40 6 -40 21 0 19 36
18 43 -1z m-360 -27 c-4 -13 -15 -36 -26 -52 -19 -27 -21 -28 -34 -10 -7 10
-13 25 -12 33 0 11 2 12 6 3 6 -16 33 3 33 23 0 12 13 22 32 24 3 1 4 -9 1
-21z m-229 -35 c3 -10 9 -23 12 -30 4 -8 -5 -7 -25 3 -31 15 -37 25 -24 37 12
13 31 7 37 -10z m921 -12 c3 -5 1 -12 -5 -16 -5 -3 -10 1 -10 9 0 18 6 21 15
7z m-792 -32 c4 -15 -3 -29 -26 -50 -41 -38 -57 -37 -57 3 0 25 3 29 12 20 17
-17 30 -15 26 6 -3 13 18 36 38 42 1 0 4 -10 7 -21z m-306 -77 c-9 -10 -17
-24 -17 -30 0 -13 -20 -17 -20 -4 0 4 -3 16 -6 27 -4 17 0 21 27 23 31 2 32 2
16 -16z m994 -14 c0 -7 2 -25 3 -40 1 -18 -4 -28 -16 -31 -10 -3 -24 -20 -32
-38 -11 -27 -20 -34 -45 -35 -17 -1 -31 3 -31 9 0 26 -19 -11 -22 -43 -2 -27
-8 -36 -25 -38 -13 -2 -28 -11 -35 -20 -8 -11 -27 -18 -50 -18 l-37 0 26 30
c14 17 29 31 32 31 3 1 17 7 31 14 l25 14 -24 -27 c-14 -14 -21 -26 -17 -26
17 0 45 46 40 67 -7 27 29 51 50 34 8 -6 21 -9 30 -5 17 7 22 34 6 34 -5 0
-10 5 -10 10 0 6 8 10 18 10 21 0 62 43 62 65 0 18 20 20 21 3z m-285 -278
c19 0 18 -16 -1 -24 -9 -3 -15 1 -15 11 0 13 -3 13 -15 3 -18 -15 -20 1 -3 18
8 8 14 9 16 2 2 -5 10 -10 18 -10z m-126 -75 c-7 -8 -10 -20 -7 -27 2 -7 1
-23 -4 -35 -10 -27 -76 -44 -90 -22 -11 18 4 26 41 23 26 -2 30 1 30 25 0 27
16 51 33 51 5 0 4 -7 -3 -15z m261 -1 c12 -14 11 -16 -5 -13 -11 2 -21 10 -24
17 -5 17 13 15 29 -4z m166 -12 c-9 -20 -8 -26 6 -33 25 -14 21 -26 -9 -26
-17 0 -28 7 -34 22 -5 13 -14 25 -21 27 -26 9 -1 35 34 35 33 0 35 -1 24 -25z
m-1317 -2 c0 -11 -4 -20 -9 -20 -5 0 -11 9 -14 20 -3 13 0 20 9 20 8 0 14 -9
14 -20z m1086 -30 c0 -21 -18 -60 -28 -60 -12 0 -30 51 -23 67 7 19 50 12 51
-7z m-752 1 c4 -5 2 -11 -4 -13 -5 -1 -12 -21 -16 -43 -7 -48 -9 -51 -28 -36
-22 18 -37 4 -34 -31 2 -22 -4 -35 -20 -46 -12 -8 -22 -23 -22 -33 0 -11 -7
-19 -15 -19 -8 0 -15 -4 -15 -10 0 -5 -9 -10 -20 -10 -11 0 -20 -5 -20 -10 0
-7 -6 -7 -20 0 -23 12 -27 30 -6 30 9 0 12 7 9 19 -4 15 1 20 24 23 24 3 28 7
26 33 -1 17 1 22 3 13 7 -22 21 -23 39 -4 12 12 11 16 -5 31 -27 24 -25 34 5
30 29 -3 44 18 39 53 -3 19 -1 22 20 16 13 -3 27 -1 30 5 9 13 23 14 30 2z
m935 -41 c4 0 15 -6 25 -13 17 -12 17 -14 3 -20 -11 -4 -27 4 -44 19 -24 22
-29 23 -31 9 -3 -12 -7 -13 -17 -5 -10 8 -19 8 -34 -2 -11 -7 -23 -9 -27 -5
-12 12 29 37 52 32 12 -3 27 4 40 18 l19 22 3 -27 c2 -16 7 -28 11 -28z m-466
-31 c18 -19 19 -21 4 -15 -11 3 -30 9 -44 12 -18 5 -21 9 -11 15 20 13 27 11
51 -12z m707 -22 c0 -28 -17 -47 -42 -47 -10 0 -19 -4 -19 -10 -1 -5 -2 -14
-3 -19 -3 -23 -16 -21 -16 2 0 21 -5 27 -21 27 -12 0 -19 5 -16 13 2 6 15 11
28 9 16 -2 33 6 49 23 29 31 40 32 40 2z m-440 -14 c0 -8 -5 -13 -12 -11 -18
6 -21 25 -3 25 8 0 15 -7 15 -14z m-775 -22 c-2 -9 -4 -20 -4 -24 -1 -5 -5 -5
-11 -2 -15 9 -12 42 4 42 7 0 12 -7 11 -16z m392 -24 c0 -27 -2 -28 -41 -25
-23 2 -39 7 -36 13 3 6 13 9 23 9 19 -2 22 7 6 23 -7 7 -2 10 19 9 24 -1 29
-5 29 -29z m223 -8 c0 -24 -23 -21 -28 4 -2 10 3 17 12 17 10 0 16 -9 16 -21z
m-50 -10 c0 -13 -6 -16 -22 -11 -17 4 -20 2 -15 -11 3 -9 0 -18 -9 -21 -8 -3
-14 -15 -14 -26 0 -11 -4 -20 -10 -20 -5 0 -10 24 -10 53 l0 52 40 0 c31 0 40
-4 40 -16z m152 -9 c8 -13 24 -20 43 -20 23 0 27 -3 15 -10 -8 -5 -25 -10 -37
-10 -13 0 -23 -4 -23 -10 0 -5 9 -10 20 -10 11 0 20 -4 20 -10 0 -17 -32 -11
-46 7 -8 12 -9 22 -3 30 7 8 4 15 -10 23 -12 6 -21 15 -21 20 0 18 30 10 42
-10z m408 -5 c0 -8 -4 -17 -10 -20 -6 -3 -7 1 -4 9 3 9 1 16 -6 16 -6 0 -8 5
-5 10 8 13 25 3 25 -15z m-47 0 c-3 -9 -8 -14 -10 -11 -3 3 -2 9 2 15 9 16 15
13 8 -4z m5 -18 c6 3 12 0 12 -6 0 -6 -5 -11 -11 -11 -5 0 -7 -5 -4 -10 4 -6
11 -8 16 -5 15 10 10 -19 -7 -43 -21 -31 -39 -23 -39 19 -1 21 -6 33 -13 32
-7 -2 -10 6 -8 20 3 12 5 24 5 26 1 2 9 -3 19 -11 9 -9 23 -13 30 -11z m-638
-32 c-11 -20 -16 -22 -28 -13 -11 10 -16 9 -23 -5 -12 -21 -36 -22 -36 -2 0 8
9 15 19 15 10 0 18 5 18 10 0 6 9 10 19 10 11 0 23 5 26 11 14 21 18 -2 5 -26z
m212 -5 c20 0 23 -16 8 -54 -10 -28 -38 -34 -59 -13 -10 10 -10 7 -2 -15 13
-35 -5 -38 -40 -8 -22 18 -23 21 -7 30 9 6 15 17 12 24 -3 8 4 16 16 19 13 3
23 0 27 -9 3 -8 14 -19 24 -25 16 -8 19 -6 19 11 0 13 -7 20 -20 20 -14 0 -20
7 -20 22 0 17 3 19 12 10 7 -7 20 -12 30 -12z m347 -40 c-22 -39 -39 -52 -39
-29 0 9 49 67 58 69 2 0 -7 -18 -19 -40z m261 32 c0 -5 -7 -17 -15 -28 -20
-26 -19 -64 1 -64 11 0 14 6 9 20 -5 14 -2 20 9 20 14 0 20 -12 17 -32 0 -5 4
-8 10 -8 5 0 7 -5 4 -10 -4 -6 -11 -7 -17 -4 -6 4 -8 2 -4 -4 3 -6 -4 -22 -16
-36 l-23 -26 -60 30 c-33 17 -61 35 -63 40 -2 6 13 10 33 10 28 0 35 -4 33
-16 -2 -13 5 -17 29 -18 29 -1 30 0 16 16 -8 9 -12 21 -9 27 4 5 -6 11 -21 14
l-28 3 33 13 c34 14 40 29 20 49 -9 9 -6 12 15 12 15 0 27 -4 27 -8z m2807
-38 c12 -19 14 -30 6 -43 -14 -23 -70 -54 -83 -46 -13 8 -4 60 16 93 19 29 40
28 61 -4z m-3760 -40 c24 -26 23 -44 -3 -44 -8 0 -14 -4 -14 -9 0 -16 -68 -10
-75 6 -4 12 -2 13 7 5 19 -15 48 10 48 42 0 33 6 33 37 0z m3631 -36 c2 -19
-3 -30 -18 -38 -26 -14 -50 1 -45 28 2 9 4 23 4 30 1 9 11 12 29 10 21 -2 28
-9 30 -30z m-441 -9 c38 -12 48 -32 25 -52 -45 -38 -94 -26 -108 28 -11 44 2
48 83 24z m-2407 1 c11 -6 17 -16 14 -25 -5 -11 -2 -13 10 -9 9 3 16 1 16 -5
0 -6 -4 -11 -10 -11 -15 0 -12 -31 5 -44 24 -18 -3 -58 -58 -85 -44 -22 -49
-22 -60 -7 -11 16 -14 15 -34 -3 -18 -17 -25 -18 -47 -8 -27 12 -34 31 -16 42
6 3 10 1 10 -4 0 -6 5 -11 12 -11 9 0 9 3 0 12 -14 14 -16 68 -2 68 6 0 10 -9
10 -20 0 -17 7 -20 50 -20 28 0 50 5 50 10 0 6 -5 10 -11 10 -6 0 -9 9 -6 20
3 11 2 20 -3 20 -4 0 -10 9 -13 20 -6 25 9 26 37 3 12 -10 15 -11 9 -3 -7 8
-13 24 -13 37 0 25 19 30 50 13z m2188 -31 c2 -15 -4 -31 -13 -39 -24 -20 -50
9 -41 45 9 36 50 32 54 -6z m-2293 -38 c2 -30 -1 -41 -11 -41 -15 0 -21 70 -7
83 10 11 14 2 18 -42z m-780 29 c4 -6 -5 -10 -19 -10 -14 0 -26 5 -26 10 0 6
9 10 19 10 11 0 23 -4 26 -10z m-61 -26 c8 -21 4 -25 -23 -27 -26 -2 -28 -17
-2 -17 11 0 22 -4 25 -9 9 -14 -16 -20 -37 -9 -26 13 -69 -20 -62 -49 4 -17
-2 -26 -24 -38 -45 -23 -58 -19 -59 15 -1 26 3 30 26 30 33 1 64 25 86 68 24
46 59 64 70 36z m226 -28 c-11 -19 -16 -37 -11 -40 5 -3 12 1 15 10 7 18 26
10 26 -12 0 -8 -9 -14 -21 -14 -11 0 -28 -7 -37 -16 -14 -15 -17 -15 -29 1
-11 17 -13 16 -23 -11 -14 -35 -13 -40 7 -36 9 2 13 -2 11 -9 -2 -7 -19 -14
-36 -16 -26 -3 -31 -1 -25 13 4 12 2 15 -8 12 -8 -3 -13 -11 -11 -17 1 -7 -2
-10 -8 -6 -9 6 -15 -16 -11 -39 1 -4 -5 -19 -14 -33 -9 -14 -14 -31 -11 -39 7
-19 -13 -18 -37 3 -17 17 -20 17 -31 1 -8 -11 -17 -14 -27 -7 -20 13 -29 11
-29 -6 0 -22 -17 -18 -35 7 -13 19 -18 21 -35 10 -23 -14 -30 -15 -30 -4 0 7
52 42 64 42 3 0 3 -7 0 -15 -4 -11 0 -15 16 -15 21 0 22 4 17 40 -3 22 -1 43
4 46 5 3 9 -1 9 -9 0 -8 9 -25 19 -38 14 -19 28 -24 57 -24 45 2 52 13 23 44
-23 24 -40 21 -19 -4 9 -11 9 -15 1 -15 -29 0 -51 22 -51 49 0 29 0 29 42 20
54 -13 66 -7 63 29 -3 39 5 52 40 58 16 3 51 20 79 39 64 44 73 44 46 1z
m-901 -3 c12 -23 -4 -53 -29 -53 -23 0 -36 36 -20 55 17 20 37 19 49 -2z
m1416 -56 c-8 -21 -11 -37 -6 -37 16 0 65 -49 57 -57 -3 -4 -16 3 -27 14 l-21
21 -48 -51 c-42 -44 -50 -49 -64 -38 -14 12 -18 10 -27 -18 -7 -19 -18 -31
-29 -31 -21 0 -21 27 0 40 8 5 12 12 8 15 -3 4 -16 -4 -28 -17 -15 -16 -24
-19 -27 -10 -7 20 -41 14 -57 -10 -18 -25 -21 -58 -6 -58 18 0 11 -20 -16 -45
-32 -30 -24 -28 -62 -9 -36 17 -37 21 -18 47 7 9 11 29 8 43 -3 17 -1 25 5 21
6 -4 18 2 28 13 20 23 92 37 108 21 18 -18 30 -12 25 14 -4 18 -2 22 8 17 8
-4 32 -6 54 -4 31 3 40 8 40 23 0 10 -4 19 -10 19 -5 0 -10 -4 -10 -10 0 -5
-5 -10 -12 -10 -9 0 -9 3 -1 11 6 6 9 18 6 26 -5 12 -2 13 13 5 30 -15 83 -1
58 16 -33 22 -18 62 22 62 13 0 26 5 29 11 15 23 14 0 0 -34z m375 12 c0 -6
-7 -17 -15 -25 -8 -9 -15 -28 -15 -44 0 -23 -4 -27 -20 -23 -41 11 -9 103 37
103 7 0 13 -5 13 -11z m-737 -116 c-3 -7 -9 -13 -14 -13 -11 0 -12 21 -2 46 6
16 7 16 13 -2 4 -10 5 -25 3 -31z m207 27 c0 -23 -10 -26 -28 -8 -18 18 -15
28 8 28 13 0 20 -7 20 -20z m-263 -27 c-9 -9 -20 -13 -24 -9 -4 4 1 14 11 22
11 7 22 11 25 9 2 -3 -3 -13 -12 -22z m-832 -61 c-2 -9 -4 -20 -4 -24 -1 -5
-10 -8 -21 -8 -29 0 -39 49 -14 67 16 12 20 11 30 -2 7 -9 11 -24 9 -33z
m1670 38 c-3 -5 -15 -10 -26 -10 -11 0 -17 5 -14 10 3 6 15 10 26 10 11 0 17
-4 14 -10z m-939 -60 c-1 -29 -11 -40 -18 -21 -1 5 -12 3 -22 -4 -16 -12 -17
-17 -6 -30 7 -9 8 -15 2 -15 -6 0 -12 6 -15 13 -3 9 -11 6 -30 -8 -14 -11 -63
-48 -108 -83 -92 -71 -122 -77 -127 -27 -3 27 2 33 34 48 28 14 39 15 45 6 4
-6 14 -9 23 -6 21 8 33 40 18 45 -7 2 -12 8 -12 13 0 4 6 6 14 3 9 -3 17 3 21
15 9 28 45 28 45 0 0 -11 5 -17 10 -14 6 4 8 11 4 16 -3 6 -3 17 1 27 5 13 8
14 14 3 11 -16 51 2 51 24 0 14 15 23 41 24 12 1 16 -7 15 -29z m874 21 c0 -5
9 -11 20 -13 19 -3 19 -4 -4 -33 -14 -17 -28 -26 -33 -21 -4 5 -2 11 5 13 10
4 10 9 -3 23 -9 10 -14 24 -10 29 8 13 25 14 25 2z m-156 -56 c3 -8 2 -15 -3
-15 -5 0 -14 7 -21 15 -10 12 -10 15 3 15 8 0 17 -7 21 -15z m-651 -84 c5 -1
6 -5 2 -11 -3 -5 -12 -7 -20 -3 -9 3 -15 -1 -16 -8 -6 -107 -23 -133 -67 -105
-7 4 -19 2 -27 -4 -9 -7 -15 -8 -15 -2 0 5 7 15 15 22 12 10 19 10 27 2 7 -7
18 -12 25 -12 22 0 14 20 -16 38 -34 21 -29 56 10 57 13 0 24 6 25 13 2 21 4
22 27 18 12 -3 26 -5 30 -5z m467 -50 c0 -20 -13 -35 -23 -25 -7 8 4 44 14 44
5 0 9 -9 9 -19z m-86 -69 c-1 -7 -2 -23 -2 -36 -2 -21 -7 -25 -32 -24 -26 1
-30 5 -30 30 0 21 5 28 20 28 11 0 20 5 20 11 0 6 6 9 13 7 6 -3 12 -10 11
-16z m-122 -91 c11 6 19 5 23 -1 4 -6 16 -8 28 -5 21 6 22 6 3 -9 -11 -9 -32
-16 -48 -16 -29 0 -38 -14 -15 -23 9 -4 9 -7 0 -14 -7 -5 -14 -21 -15 -36 -3
-30 -13 -35 -26 -11 -8 14 -10 14 -25 0 -8 -9 -22 -16 -31 -16 -8 0 -18 -5
-21 -10 -4 -6 -14 -9 -23 -8 -9 2 -16 -2 -15 -8 2 -11 -75 -29 -84 -20 -2 2 5
19 16 37 12 19 21 42 21 52 0 9 5 17 10 17 6 0 10 -4 10 -10 0 -5 9 -10 21
-10 15 0 19 5 15 18 -9 27 36 66 64 57 16 -5 26 -1 37 15 14 20 18 21 27 7 8
-10 17 -12 28 -6z m588 -17 c-5 -19 -10 -36 -12 -37 -2 -1 -23 -20 -46 -42
-43 -40 -43 -40 -32 -10 6 16 16 35 22 42 8 10 6 13 -6 13 -9 0 -22 -11 -28
-25 -10 -23 -31 -31 -29 -12 1 4 1 13 1 21 0 7 9 16 20 19 11 3 20 12 20 21 0
9 8 16 18 16 9 0 28 7 42 14 37 21 39 19 30 -20z m-1155 -56 c6 -33 -18 -56
-40 -38 -20 17 -19 57 3 69 20 12 31 3 37 -31z m2185 -63 c0 -8 -7 -15 -16
-15 -14 0 -14 3 -4 15 7 8 14 15 16 15 2 0 4 -7 4 -15z m-1165 -26 c0 -8 -15
-21 -33 -29 -18 -8 -35 -25 -38 -37 -4 -14 -14 -23 -25 -23 -24 0 -25 19 -1
36 16 13 16 15 0 28 -38 28 -14 43 62 40 22 -1 35 -7 35 -15z m-178 -84 c8 -8
19 -13 24 -10 5 4 9 -3 9 -14 0 -16 -6 -21 -28 -21 -25 0 -29 4 -30 30 -1 34
3 36 25 15z m1891 -1 c50 -6 77 -16 117 -44 l30 -22 -48 7 c-27 4 -59 8 -70
11 -97 18 -137 29 -167 45 l-35 19 65 -6 c36 -3 84 -7 108 -10z m-1720 -16
c16 -16 15 -29 -2 -22 -16 6 -30 34 -18 34 5 0 13 -5 20 -12z m-94 -22 c-6
-16 -34 -30 -34 -18 0 10 22 32 32 32 4 0 5 -6 2 -14z m-379 -44 c-3 -3 -11 0
-18 7 -9 10 -8 11 6 5 10 -3 15 -9 12 -12z m2420 -22 c0 -8 -8 -16 -17 -18
-13 -2 -18 3 -18 18 0 15 5 20 18 18 9 -2 17 -10 17 -18z m151 -139 c-8 -12
-66 -32 -66 -23 0 8 39 29 58 31 7 0 11 -3 8 -8z m64 -128 c1 -10 3 -66 7
-124 4 -79 2 -108 -7 -114 -20 -13 -27 12 -24 93 4 130 7 162 16 162 4 0 8 -8
8 -17z m320 -555 c32 -44 34 -55 7 -72 -36 -23 -96 54 -75 97 14 28 36 20 68
-25z m233 -219 c11 -40 -21 -71 -49 -48 -15 12 -19 51 -7 62 15 15 51 6 56
-14z m-93 -39 c8 -14 8 -26 0 -40 -13 -24 -23 -25 -40 -5 -10 12 -10 21 -2 40
14 30 28 32 42 5z m121 -277 c8 -20 6 -30 -5 -42 -17 -16 -26 -12 -30 16 -3
18 10 53 20 53 2 0 9 -12 15 -27z m-77 -70 c13 -42 -15 -83 -41 -61 -14 11
-18 60 -6 71 13 13 42 7 47 -10z m-3341 -502 c4 0 7 -8 7 -16 0 -11 -11 -15
-40 -15 -28 0 -40 4 -40 14 0 20 23 26 73 17z m241 -130 c44 -21 91 -42 104
-45 12 -4 29 -20 37 -36 17 -32 36 -41 103 -45 40 -2 47 -6 44 -21 -5 -29 -41
-54 -77 -54 -24 0 -54 14 -102 47 -138 94 -214 160 -206 179 7 19 5 19 97 -25z
m444 -79 c2 -23 -2 -34 -13 -38 -30 -12 -55 36 -33 64 19 22 43 9 46 -26z
m152 -106 c0 -8 24 -28 53 -45 69 -40 117 -85 95 -89 -17 -3 -151 50 -180 72
-17 12 -17 16 -2 45 16 32 34 41 34 17z m313 -145 c6 -6 8 -14 4 -17 -8 -9
-67 16 -67 27 0 12 50 3 63 -10z m242 9 c9 -14 -42 -43 -62 -35 -16 6 -16 8 6
26 25 21 46 24 56 9z m520 -35 c0 -23 -5 -31 -22 -33 -17 -3 -24 3 -29 22 -8
32 3 48 29 44 17 -2 22 -10 22 -33z"/>
<path d="M1085 3430 c-10 -11 -13 -20 -8 -20 13 0 38 29 31 35 -3 3 -13 -4
-23 -15z"/>
<path d="M4346 1674 c-5 -14 -4 -15 9 -4 17 14 19 20 6 20 -5 0 -12 -7 -15
-16z"/>
<path d="M963 4853 c-4 -9 1 -29 10 -45 9 -16 13 -27 8 -24 -4 3 -17 -1 -27
-9 -15 -10 -16 -16 -7 -26 9 -9 22 -9 57 2 44 13 46 15 46 51 0 31 -5 40 -30
53 -37 19 -49 19 -57 -2z"/>
<path d="M613 4818 c-12 -6 -23 -22 -25 -39 -7 -43 18 -37 42 11 21 42 19 45
-17 28z"/>
<path d="M691 4731 c-40 -36 -46 -56 -13 -43 10 3 23 12 31 20 7 7 19 11 26 8
8 -3 15 5 17 19 8 38 -16 37 -61 -4z"/>
<path d="M1949 2433 c-13 -16 -12 -17 4 -4 9 7 17 15 17 17 0 8 -8 3 -21 -13z"/>
<path d="M175 1721 c-4 -10 2 -21 14 -30 12 -7 21 -22 21 -33 0 -13 4 -17 13
-11 6 4 21 6 32 5 18 -3 17 -1 -5 17 -20 16 -23 22 -12 32 21 22 13 35 -23 35
-22 0 -37 -6 -40 -15z"/>
<path d="M4570 674 c0 -9 5 -14 12 -12 18 6 21 28 4 28 -9 0 -16 -7 -16 -16z"/>
</g>
</svg>
